<svg width="15.25" height="20.01" viewBox="0 0 16 21" fill="none" xmlns="http://www.w3.org/2000/svg">
<mask id="mask0" mask-type="alpha" maskUnits="userSpaceOnUse" x="0" y="0" width="16" height="21">
<path fill-rule="evenodd" clip-rule="evenodd" d="M13.34 6.67H12.3871V4.76429C12.3871 2.1344 10.2527 0 7.62286 0C4.99297 0 2.85857 2.1344 2.85857 4.76429H4.76429C4.76429 3.18254 6.04111 1.90571 7.62286 1.90571C9.2046 1.90571 10.4814 3.18254 10.4814 4.76429V6.67H1.90571C0.857571 6.67 0 7.52757 0 8.57571V18.1043C0 19.1524 0.857571 20.01 1.90571 20.01H13.34C14.3881 20.01 15.2457 19.1524 15.2457 18.1043V8.57571C15.2457 7.52757 14.3881 6.67 13.34 6.67ZM1.90571 18.1043V8.57571H13.34V18.1043H1.90571ZM9.52857 13.34C9.52857 14.3881 8.671 15.2457 7.62286 15.2457C6.57471 15.2457 5.71714 14.3881 5.71714 13.34C5.71714 12.2919 6.57471 11.4343 7.62286 11.4343C8.671 11.4343 9.52857 12.2919 9.52857 13.34Z" fill="white"/>
</mask>
<g mask="url(#mask0)">
<rect x="-4.79761" y="-1.995" width="24" height="24" fill="#66788A"/>
</g>
</svg>
