<svg width="19.14" height="16.51" viewBox="0 0 20 17" fill="none" xmlns="http://www.w3.org/2000/svg">
<mask id="mask0" mask-type="alpha" maskUnits="userSpaceOnUse" x="0" y="0" width="20" height="17">
<path fill-rule="evenodd" clip-rule="evenodd" d="M14.1027 6.0726H18.27C18.7485 6.0726 19.14 6.4641 19.14 6.9426L19.1139 7.1775L16.9041 15.2424C16.6953 15.9732 16.0254 16.5126 15.225 16.5126H3.915C3.1146 16.5126 2.4447 15.9732 2.2446 15.2424L0.0348 7.1775C0.0087 7.0992 0 7.0209 0 6.9426C0 6.4641 0.3915 6.0726 0.87 6.0726H5.0373L8.8479 0.3741C9.0132 0.1218 9.2916 0 9.57 0C9.8484 0 10.1268 0.1218 10.2921 0.3654L14.1027 6.0726ZM12.006 6.0726L9.57 2.4186L7.134 6.0726H12.006ZM15.225 14.7726L3.9237 14.7813L2.0097 7.8126H17.139L15.225 14.7726ZM7.83 11.2926C7.83 10.3356 8.613 9.5526 9.57 9.5526C10.527 9.5526 11.31 10.3356 11.31 11.2926C11.31 12.2496 10.527 13.0326 9.57 13.0326C8.613 13.0326 7.83 12.2496 7.83 11.2926Z" fill="white"/>
</mask>
<g mask="url(#mask0)">
<rect x="-2.19971" y="-3.75238" width="24" height="24" fill="#66788A"/>
</g>
</svg>
