<svg width="17" height="20" viewBox="0 0 17 20" fill="none" xmlns="http://www.w3.org/2000/svg">
<mask id="mask0" mask-type="alpha" maskUnits="userSpaceOnUse" x="0" y="0" width="17" height="20">
<path fill-rule="evenodd" clip-rule="evenodd" d="M7.83 16.5213V19.6533L9.0741 19.053C13.5372 16.9041 16.53 12.5715 16.53 8.265C16.53 3.7062 12.8238 0 8.265 0C3.7062 0 0 3.7062 0 8.265C0 12.6759 3.4713 16.2951 7.83 16.5213ZM1.74 8.265C1.74 4.6632 4.6632 1.74 8.265 1.74C11.8668 1.74 14.79 4.6632 14.79 8.265C14.79 11.5014 12.7368 14.79 9.57 16.791V14.79H8.265C4.6632 14.79 1.74 11.8668 1.74 8.265ZM9.135 11.745V13.485H7.395V11.745H9.135ZM8.93529 7.67486C8.21464 8.22723 7.395 8.85549 7.395 10.44H9.135C9.135 9.48702 9.75359 8.94644 10.3885 8.39162C11.0577 7.80679 11.745 7.20614 11.745 6.09C11.745 4.1673 10.1877 2.61 8.265 2.61C6.3423 2.61 4.785 4.1673 4.785 6.09H6.525C6.525 5.133 7.308 4.35 8.265 4.35C9.222 4.35 10.005 5.133 10.005 6.09C10.005 6.85492 9.5006 7.24154 8.93529 7.67486Z" fill="white"/>
</mask>
<g mask="url(#mask0)">
<rect x="-3.735" y="-1.995" width="24" height="24" fill="#66788A"/>
</g>
</svg>
