<svg width="37" height="19" viewBox="0 0 37 19" fill="none" xmlns="http://www.w3.org/2000/svg">
<rect width="37" height="19" rx="4" fill="white" fill-opacity="0.01"/>
<mask id="mask0" mask-type="alpha" maskUnits="userSpaceOnUse" x="0" y="0" width="37" height="19">
<rect width="37" height="19" rx="4" fill="white"/>
</mask>
<g mask="url(#mask0)">
<rect width="37" height="19" fill="#26A69A"/>
</g>
<path d="M10.8459 9.9873H7.98457V13H6.74922V5.89062H11.2658V6.88672H7.98457V9.00098H10.8459V9.9873ZM15.1596 10.2607H13.7826V13H12.5473V5.89062H15.0473C15.8676 5.89062 16.5007 6.07454 16.9467 6.44238C17.3926 6.81022 17.6156 7.34245 17.6156 8.03906C17.6156 8.51432 17.5001 8.91309 17.2689 9.23535C17.0411 9.55436 16.7221 9.80013 16.3119 9.97266L17.9086 12.9365V13H16.5854L15.1596 10.2607ZM13.7826 9.26953H15.0521C15.4688 9.26953 15.7943 9.16536 16.0287 8.95703C16.2631 8.74544 16.3803 8.45736 16.3803 8.09277C16.3803 7.71191 16.2712 7.41732 16.0531 7.20898C15.8383 7.00065 15.516 6.89323 15.0863 6.88672H13.7826V9.26953ZM23.2428 9.82617H20.3229V12.0137H23.7359V13H19.0875V5.89062H23.7018V6.88672H20.3229V8.84961H23.2428V9.82617ZM29.1971 9.82617H26.2771V12.0137H29.6902V13H25.0418V5.89062H29.6561V6.88672H26.2771V8.84961H29.1971V9.82617Z" fill="white"/>
</svg>
